<svg role="img" xmlns="http://www.w3.org/2000/svg" viewBox="0 0 24 24" fill="none" stroke="#2E9BEA" stroke-width="1.75" stroke-linecap="round" stroke-linejoin="round"><title>REST</title><path d="M10 4.4c-2.5 0-2.5 2.7-2.5 4.3 0 1.7-1.1 3.3-2.5 3.3 1.4 0 2.5 1.6 2.5 3.3 0 1.6 0 4.3 2.5 4.3"/><path d="M14 4.4c2.5 0 2.5 2.7 2.5 4.3 0 1.7 1.1 3.3 2.5 3.3-1.4 0-2.5 1.6-2.5 3.3 0 1.6 0 4.3-2.5 4.3"/><circle cx="12" cy="8.6" r="0.95" fill="#2E9BEA" stroke="none"/><circle cx="12" cy="12" r="0.95" fill="#2E9BEA" stroke="none"/><circle cx="12" cy="15.4" r="0.95" fill="#2E9BEA" stroke="none"/></svg>